<svg width="128" height="128" xmlns="http://www.w3.org/2000/svg">
 <!-- Created with Method Draw - http://github.com/duopixel/Method-Draw/ -->

 <g>
  <title>background</title>
  <rect fill="#f0f0f0" id="canvas_background" height="130" width="130" y="-1" x="-1"/>
  <g display="none" overflow="visible" y="0" x="0" height="100%" width="100%" id="canvasGrid">
   <rect  stroke-width="0" y="0" x="0" height="100%" width="100%"/>
  </g>
 </g>
 <g>
  <title>Layer 1</title>
  <!-- Created with Method Draw - http://github.com/duopixel/Method-Draw/ -->
  <g id="svg_21">
   <g transform="matrix(0.04216191398779956,0,0,0.04216191398779956,0,0) " id="svg_18">
    <title transform="translate(1117.95751953125,0) translate(0,1217.9576416015625) ">background</title>
    <rect x="1116.95752" y="1216.95764" width="802" height="602" id="svg_16" fill="#fff"/>
    <g id="svg_15" display="none">
     <rect id="svg_19" width="128" height="128" x="1117.95752" y="1217.95764" stroke-width="0" />
    </g>
   </g>
   <g transform="matrix(0.3856902985667397,0,0,0.3849287325093913,-528.3546308860818,-498.67769418142683) " id="svg_20">
    <title transform="translate(2.2737367544323206e-13,0) translate(0,2.2737367544323206e-13) translate(0,2.2737367544323206e-13) translate(2.2737367544323206e-13,0) translate(-0.00004842600901611149,0) translate(0.00007364431075984612,0) translate(-1.2291744947433472,0) translate(0,-2.5925452709198) translate(0,0.000014371158613357693) translate(0,0.5089255571365356) translate(-2.2737367544323206e-13,0) translate(0,-1.1368683772161603e-13) translate(0,6.160532474517822) translate(1117.95751953125,0) translate(0,1217.9576416015625) ">Layer 1</title>
    <g id="svg_10" stroke="null">
     <g id="svg_11" transform="matrix(4,0,0,4,0,0) " stroke="null">
      <path d="m407.72452,327.3662a9.5,9.5 0 0 0 -13.5,0l-15.4,15.4a9.5,9.5 0 0 0 0,13.5a3,3 0 0 0 4.2,-4.2a3.5,3.5 0 0 1 0,-5l15.4,-15.5a3.6,3.6 0 0 1 5,0l14.2,14.2a3.5,3.5 0 0 1 0,5l-15.5,15.4a3.6,3.6 0 0 1 -5,0a3,3 0 1 0 -4.2,4.2a9.5,9.5 0 0 0 13.5,0l15.4,-15.4a9.5,9.5 0 0 0 0,-13.5l-14.1,-14.1z" id="svg_14" stroke="null"/>
      <path d="m359.72452,403.5662a9.5,9.5 0 0 0 13.5,0l15.5,-15.4a9.5,9.5 0 0 0 0,-13.5a3,3 0 1 0 -4.2,4.2a3.5,3.5 0 0 1 0,5l-15.5,15.5a3.5,3.5 0 0 1 -5,0l-14.2,-14.2a3.5,3.5 0 0 1 0,-5l15.5,-15.4a3.6,3.6 0 0 1 5,0a3,3 0 0 0 4.2,-4.2a9.5,9.5 0 0 0 -13.5,0l-15.4,15.4a9.5,9.5 0 0 0 0,13.5l14.1,14.1z" id="svg_13" stroke="null"/>
      <path d="m367.12452,382.0662a3,3 0 0 0 4.2,0l30.2,-30.2a3,3 0 0 0 -4.2,-4.2l-30.2,30.2a3,3 0 0 0 0,4.2z" id="svg_12" stroke="null"/>
     </g>
    </g>
   </g>
  </g>
 </g>
</svg>