<svg width="128" height="128" xmlns="http://www.w3.org/2000/svg">
 <!-- Created with Method Draw - http://github.com/duopixel/Method-Draw/ -->

 <g>
  <title>background</title>
  <rect fill="none" id="canvas_background" height="130" width="130" y="-1" x="-1"/>
  <g display="none" overflow="visible" y="0" x="0" height="100%" width="100%" id="canvasGrid">
   <rect  stroke-width="0" y="0" x="0" height="100%" width="100%"/>
  </g>
 </g>
 <g>
  <title>Layer 1</title>
  <g stroke="#6ceebe" id="svg_15">
   <g stroke="#6ceebe" transform="matrix(1.5027353314840581,0,0,1.5005666856248243,25.476880896386717,-21.893487984492236) " id="svg_4">
    <path stroke="#6ceebe" id="svg_5" d="m22.15106,33.41778a11.5,11.5 0 0 0 0,16.3a4,4 0 0 0 5.7,-5.7a3.5,3.5 0 0 1 0,-5l13.3,-13.3a3.5,3.5 0 0 1 5,0l10.6,10.6a3.5,3.5 0 0 1 0,5l-13.3,13.3a3.6,3.6 0 0 1 -5,0a4,4 0 1 0 -5.7,5.7a11.5,11.5 0 0 0 16.3,0l13.3,-13.3a11.5,11.5 0 0 0 0,-16.3l-10.6,-10.6a11.5,11.5 0 0 0 -16.3,0l-13.3,13.3z"/>
    <path stroke="#6ceebe" id="svg_6" d="m-11.64894,83.51778l10.6,10.6a11.5,11.5 0 0 0 16.3,0l13.3,-13.3a11.5,11.5 0 0 0 0,-16.3a4,4 0 1 0 -5.7,5.7a3.5,3.5 0 0 1 0,5l-13.3,13.3a3.5,3.5 0 0 1 -5,0l-10.6,-10.6a3.5,3.5 0 0 1 0,-5l13.3,-13.3a3.5,3.5 0 0 1 5,0a4,4 0 1 0 5.7,-5.7a11.5,11.5 0 0 0 -16.3,0l-13.3,13.3a11.5,11.5 0 0 0 0,16.3z"/>
    <path stroke="#6ceebe" id="svg_7" d="m48.65106,74.81778a4,4 0 0 0 -5.7,5.7l9.9,9.9a4,4 0 0 0 5.7,-5.7l-9.9,-9.9z"/>
    <path stroke="#6ceebe" id="svg_8" d="m64.65106,69.81778l-8.5,-4.2a4,4 0 0 0 -3.6,7.2l8.5,4.2a4,4 0 1 0 3.6,-7.2z"/>
    <path stroke="#6ceebe" id="svg_9" d="m41.65106,98.61778a4,4 0 0 0 3.6,-5.8l-4.2,-8.5a4,4 0 1 0 -7.2,3.6l4.2,8.5a4,4 0 0 0 3.6,2.2z"/>
    <path stroke="#6ceebe" id="svg_10" d="m2.05106,39.41778a4,4 0 1 0 5.7,-5.7l-9.9,-9.9a4,4 0 1 0 -5.7,5.7l9.9,9.9z"/>
    <path stroke="#6ceebe" id="svg_11" d="m7.25106,16.01778a4,4 0 0 0 -1.8,5.4l4.2,8.5a4,4 0 1 0 7.2,-3.6l-4.2,-8.5a4,4 0 0 0 -5.4,-1.8z"/>
    <path stroke="#6ceebe" id="svg_12" d="m-13.94894,44.41778l8.5,4.2a4,4 0 1 0 3.6,-7.2l-8.5,-4.2a4,4 0 1 0 -3.6,7.2z"/>
   </g>
  </g>
 </g>
</svg>