<svg width="128" height="128" xmlns="http://www.w3.org/2000/svg">
 <title>icon/export-down</title>

 <desc>Created with Sketch.</desc>
 <g>
  <title>background</title>
  <rect fill="#f0f0f0" id="canvas_background" height="130" width="130" y="-1" x="-1"/>
 </g>
 <g>
  <title>Layer 1</title>
  <g id="svg_1" fill-rule="evenodd" fill="none">
   <path stroke="null" id="svg_2" fill-rule="nonzero" fill="#000000" d="m60.53383,115.96294l0,-79.49866c0,-1.71601 1.45593,-3.10714 3.25188,-3.10714c1.79595,0 3.25188,1.39113 3.25188,3.10714l0,79.49866l20.46375,-19.55287c1.26992,-1.21346 3.32888,-1.21346 4.59881,0c1.26999,1.2134 1.26999,3.18072 0,4.39412l-26.01504,24.85714c-1.26992,1.21346 -3.32888,1.21346 -4.59881,0l-26.01504,-24.85714c-1.26999,-1.2134 -1.26999,-3.18072 0,-4.39412c1.26992,-1.21346 3.32888,-1.21346 4.59881,0l20.46375,19.55287zm-52.03007,-45.32009l35.77068,0c1.79595,0 3.25188,1.39113 3.25188,3.10714c0,1.71601 -1.45593,3.10714 -3.25188,3.10714l-39.02256,0c-1.79595,0 -3.25188,-1.39113 -3.25188,-3.10714l0,-68.35713c0,-1.71601 1.45593,-3.10714 3.25188,-3.10714l117.06767,0c1.79595,0 3.25188,1.39113 3.25188,3.10714l0,68.35713c0,1.71601 -1.45593,3.10714 -3.25188,3.10714l-39.02256,0c-1.79595,0 -3.25188,-1.39113 -3.25188,-3.10714c0,-1.71601 1.45593,-3.10714 3.25188,-3.10714l35.77068,0l0,-62.14284l-110.56391,0l0,62.14284z"/>
  </g>
 </g>
</svg>