<svg id="SVGRoot" version="1.1" viewBox="0 0 48 48" xmlns="http://www.w3.org/2000/svg">
 <g transform="matrix(.11904 0 0 .15241 .52627 -5.7302)">
  <path d="m360.28 117.05h-72.777v-40.94c0-18.165-14.774-32.944-32.936-32.944h-221.63c-18.162 0-32.936 14.779-32.936 32.944v126.25c0 18.161 14.774 32.936 32.936 32.936h16.87v33.378c0 3.06 1.858 5.813 4.696 6.956 0.908 0.366 1.859 0.544 2.802 0.544 2 0 3.963-0.801 5.405-2.299l37.138-38.58h5.867v40.944c0 18.163 14.776 32.939 32.938 32.939h154.72l37.141 38.578c1.442 1.498 3.405 2.299 5.405 2.299 0.942 0 1.894-0.178 2.803-0.544 2.837-1.144 4.695-3.896 4.695-6.956v-33.376h16.864c18.162 0 32.938-14.776 32.938-32.939v-126.25c1e-3 -18.163-14.776-32.939-32.938-32.939zm-254.57 32.939v70.309h-9.058c-2.039 0-3.989 0.83-5.403 2.299l-26.447 27.474v-22.273c0-4.142-3.357-7.5-7.5-7.5h-24.37c-9.89 0-17.936-8.046-17.936-17.936v-126.25c0-9.894 8.046-17.944 17.936-17.944h221.63c9.89 0 17.936 8.05 17.936 17.944v40.94h-133.85c-18.162 0-32.938 14.776-32.938 32.939zm272.51 126.25c0 9.892-8.047 17.939-17.938 17.939h-24.364c-4.143 0-7.5 3.358-7.5 7.5v22.272l-26.45-27.474c-1.414-1.469-3.365-2.298-5.403-2.298h-157.92c-9.892 0-17.938-8.047-17.938-17.939v-126.25c0-9.892 8.047-17.939 17.938-17.939h221.63c9.892 0 17.938 8.047 17.938 17.939v126.25z"/>
 </g>
</svg>
