<?xml version="1.0" encoding="UTF-8" standalone="no"?>
<svg
   xmlns:dc="http://purl.org/dc/elements/1.1/"
   xmlns:cc="http://creativecommons.org/ns#"
   xmlns:rdf="http://www.w3.org/1999/02/22-rdf-syntax-ns#"
   xmlns:svg="http://www.w3.org/2000/svg"
   xmlns="http://www.w3.org/2000/svg"
   xmlns:sodipodi="http://sodipodi.sourceforge.net/DTD/sodipodi-0.dtd"
   xmlns:inkscape="http://www.inkscape.org/namespaces/inkscape"
   version="1.1"
   x="0px"
   y="0px"
   viewBox="0 0 100 125"
   style="enable-background:new 0 0 100 100;"
   xml:space="preserve"
   id="svg32"
   sodipodi:docname="cut.svg"
   inkscape:version="1.0.1 (3bc2e813f5, 2020-09-07)"><metadata
     id="metadata38"><rdf:RDF><cc:Work
         rdf:about=""><dc:format>image/svg+xml</dc:format><dc:type
           rdf:resource="http://purl.org/dc/dcmitype/StillImage" /></cc:Work></rdf:RDF></metadata><defs
     id="defs36" /><sodipodi:namedview
     pagecolor="#ffffff"
     bordercolor="#666666"
     borderopacity="1"
     objecttolerance="10"
     gridtolerance="10"
     guidetolerance="10"
     inkscape:pageopacity="0"
     inkscape:pageshadow="2"
     inkscape:window-width="820"
     inkscape:window-height="480"
     id="namedview34"
     showgrid="false"
     inkscape:zoom="6.8"
     inkscape:cx="50"
     inkscape:cy="56.617647"
     inkscape:window-x="443"
     inkscape:window-y="8"
     inkscape:window-maximized="0"
     inkscape:current-layer="svg32" /><path
     d="M2.8,58.6c-1.5,3.5,0.2,7.6,3.7,9.2l0,0l13.3,5.1l-13.3,5l0,0c-3.5,1.6-5.2,5.6-3.7,9.2  c1.5,3.6,5.7,5.3,9.4,3.8s5.5-5.7,4-9.3c-0.1-0.3-0.3-0.7-0.5-1l11.5-4.7l7.4,3c4.4,2,15.9,7,22.7,9c8.4,2.5,12.6-3.1,12.6-3.1  l-28-12l28-12.4c0,0-4-4.7-10.7-3c-5.3,1.4-18.9,7-24.1,9.2l-7.7,3.2l-11.5-4.7c0.2-0.3,0.4-0.6,0.5-1c1.5-3.6-0.3-7.8-4-9.3  C8.5,53.3,4.3,55,2.8,58.6z M13.3,83c0.8,1.9-0.2,4.1-2.3,5c-2,0.8-4.3,0-5.1-1.9c-0.8-1.9,0.2-4.1,2.3-5  C10.2,80.3,12.5,81.1,13.3,83z M39.2,74.2l0.3-0.6L66,84.9l-0.3,0.6L39.2,74.2z M33.4,70.7c1,0,1.8,0.8,1.8,1.8c0,1-0.8,1.8-1.8,1.8  c-1,0-1.8-0.8-1.8-1.8C31.6,71.5,32.4,70.7,33.4,70.7z M10.9,57.9c2,0.8,3.1,3.1,2.3,5c-0.8,1.9-3.1,2.8-5.1,1.9  c-2-0.8-3.1-3.1-2.3-5C6.6,57.9,8.9,57.1,10.9,57.9z"
     id="path2" /><path
     d="M96.6,39.5c-0.9,0-1.7-0.8-1.7-1.7V27.3c0-0.9,0.8-1.7,1.7-1.7s1.7,0.8,1.7,1.7v10.5  C98.3,38.8,97.6,39.5,96.6,39.5z"
     id="path4" /><path
     d="M96.6,56.9c-0.9,0-1.7-0.8-1.7-1.7V44.7c0-0.9,0.8-1.7,1.7-1.7s1.7,0.8,1.7,1.7v10.5  C98.3,56.1,97.6,56.9,96.6,56.9z"
     id="path6" /><path
     d="M9.5,39.5c-0.9,0-1.7-0.8-1.7-1.7V27.3c0-0.9,0.8-1.7,1.7-1.7c0.9,0,1.7,0.8,1.7,1.7v10.5  C11.2,38.8,10.4,39.5,9.5,39.5z"
     id="path8" /><path
     d="M79.2,74.6H67.7c-0.9,0-1.7-0.8-1.7-1.7s0.8-1.7,1.7-1.7h11.5c0.9,0,1.7,0.8,1.7,1.7S80.2,74.6,79.2,74.6z"
     id="path10" /><path
     d="M59,11.5H47.5c-0.9,0-1.7-0.8-1.7-1.7s0.8-1.7,1.7-1.7H59c0.9,0,1.7,0.8,1.7,1.7S60,11.5,59,11.5z"
     id="path12" /><path
     d="M78.9,11.5H67.4c-0.9,0-1.7-0.8-1.7-1.7s0.8-1.7,1.7-1.7h11.5c0.9,0,1.7,0.8,1.7,1.7S79.8,11.5,78.9,11.5z"
     id="path14" /><path
     d="M39.2,11.5H27.7c-0.9,0-1.7-0.8-1.7-1.7s0.8-1.7,1.7-1.7h11.5c0.9,0,1.7,0.8,1.7,1.7S40.1,11.5,39.2,11.5z"
     id="path16" /><path
     d="M96.3,74.6h-9.2c-0.9,0-1.7-0.8-1.7-1.7s0.8-1.7,1.7-1.7h7.5v-8.2c0-0.9,0.8-1.7,1.7-1.7s1.7,0.8,1.7,1.7  v9.9C98,73.9,97.2,74.6,96.3,74.6z"
     id="path18" /><path
     d="M96.6,20.7c-0.9,0-1.7-0.8-1.7-1.7v-7.5h-8.2c-0.9,0-1.7-0.8-1.7-1.7s0.8-1.7,1.7-1.7h9.9  c0.9,0,1.7,0.8,1.7,1.7V19C98.3,20,97.6,20.7,96.6,20.7z"
     id="path20" /><path
     d="M19.4,11.5h-8.2V19c0,0.9-0.8,1.7-1.7,1.7S7.9,20,7.9,19V9.8c0-0.9,0.8-1.7,1.7-1.7h9.9  c0.9,0,1.7,0.8,1.7,1.7S20.4,11.5,19.4,11.5z"
     id="path22" /><path
     d="m 60.2,74.6 h -5.8 v -3.4 h 5.8 c 0.9,0 1.7,0.8 1.7,1.7 0,0.9 -0.8,1.7 -1.7,1.7 z"
     id="path24" /><path
     d="m 11.3,45.8 v 4.8 H 7.9 v -4.8 c 0,-0.9 0.8,-1.7 1.7,-1.7 0.9,0 1.7,0.8 1.7,1.7 z"
     id="path26"
     style="display:inline" /></svg>
