<?xml version="1.0" encoding="UTF-8" standalone="no"?>
<svg
   xmlns:dc="http://purl.org/dc/elements/1.1/"
   xmlns:cc="http://creativecommons.org/ns#"
   xmlns:rdf="http://www.w3.org/1999/02/22-rdf-syntax-ns#"
   xmlns:svg="http://www.w3.org/2000/svg"
   xmlns="http://www.w3.org/2000/svg"
   width="130"
   height="130"
   style=""
   version="1.1"
   id="svg132">
  <metadata
     id="metadata138">
    <rdf:RDF>
      <cc:Work
         rdf:about="">
        <dc:format>image/svg+xml</dc:format>
        <dc:type
           rdf:resource="http://purl.org/dc/dcmitype/StillImage" />
        <dc:title></dc:title>
      </cc:Work>
    </rdf:RDF>
  </metadata>
  <defs
     id="defs136" />
  <rect
     id="backgroundrect"
     width="100%"
     height="100%"
     x="0"
     y="0"
     fill="none"
     stroke="none" />
  <!-- Created with Method Draw - http://github.com/duopixel/Method-Draw/ -->
  <g
     id="g111"
     style="fill:#6ceebe">
    <title
       id="title106">background</title>
    <rect
       x="-1"
       y="-1"
       width="132"
       height="132"
       id="canvas_background"
       fill="none" />
    <g
       id="canvasGrid"
       display="none"
       style="fill:#6ceebe">
      <rect
         id="svg_1"
         width="100%"
         height="100%"
         x="0"
         y="0"
         stroke-width="0"
         
         style="fill:#6ceebe" />
    </g>
  </g>
  <g
     stroke="#6ceebe"
     class="currentLayer"
     id="g130"
     transform="matrix(1.1212008,0,0,0.99642839,-15.578106,0.08583991)">
    <title
       stroke="#6ceebe"
       transform="translate(3.1640799045562744,126.48587799072266) scale(1.0332609415054321,1.03335440158844) translate(-3.1640799045562744,-126.48587799072266) translate(123.32359313964844,2.4789817333221436) scale(1.0160951614379883,1.0188287496566772) translate(-123.32359313964844,-2.4789817333221436) translate(1.1087557077407837,122.35737609863281) scale(1.0052800178527832,1.007920265197754) translate(-1.1087557077407837,-122.35737609863281) "
       id="title113">Layer 1</title>
    <g
       stroke="#6ceebe"
       id="svg_23"
       class=""
       transform="matrix(0.87128297,0,0,0.95555947,16.487637,5.7247943)">
      <polygon
         stroke="#6ceebe"
         fill="none"
         stroke-width="2"
         stroke-linecap="round"
         stroke-linejoin="round"
         stroke-miterlimit="10"
         points="9.6280984,120.3296 128.09212,120.3296 9.6280984,120.3296 9.6280984,1.5616735 "
         id="svg_4" />
      <path
         stroke="#6ceebe"
         fill="none"
         stroke-width="2"
         stroke-linecap="round"
         stroke-linejoin="round"
         stroke-miterlimit="10"
         d="M 1.16407,103.36843 H 9.6245 Z"
         id="svg_5" />
      <path
         stroke="#6ceebe"
         fill="none"
         stroke-width="2"
         stroke-linecap="round"
         stroke-linejoin="round"
         stroke-miterlimit="10"
         d="M 1.16407,86.39823 H 9.6245 Z"
         id="svg_6" />
      <path
         stroke="#6ceebe"
         fill="none"
         stroke-width="2"
         stroke-linecap="round"
         stroke-linejoin="round"
         stroke-miterlimit="10"
         d="M 1.16407,69.43345 H 9.6245 Z"
         id="svg_7" />
      <path
         stroke="#6ceebe"
         fill="none"
         stroke-width="2"
         stroke-linecap="round"
         stroke-linejoin="round"
         stroke-miterlimit="10"
         d="M 1.16407,52.46325 H 9.6245 Z"
         id="svg_8" />
      <path
         stroke="#6ceebe"
         fill="none"
         stroke-width="2"
         stroke-linecap="round"
         stroke-linejoin="round"
         stroke-miterlimit="10"
         d="M 1.16407,35.49666 H 9.6245 Z"
         id="svg_9" />
      <path
         stroke="#6ceebe"
         fill="none"
         stroke-width="2"
         stroke-linecap="round"
         stroke-linejoin="round"
         stroke-miterlimit="10"
         d="M 1.16407,18.53007 H 9.6245 Z"
         id="svg_10" />
      <path
         stroke="#6ceebe"
         fill="none"
         stroke-width="2"
         stroke-linecap="round"
         stroke-linejoin="round"
         stroke-miterlimit="10"
         d="m 26.55077,128.81922 v -8.4824 z"
         id="svg_11" />
      <path
         stroke="#6ceebe"
         fill="none"
         stroke-width="2"
         stroke-linecap="round"
         stroke-linejoin="round"
         stroke-miterlimit="10"
         d="m 43.46982,128.81922 v -8.4824 z"
         id="svg_12" />
      <path
         stroke="#6ceebe"
         fill="none"
         stroke-width="2"
         stroke-linecap="round"
         stroke-linejoin="round"
         stroke-miterlimit="10"
         d="m 60.39428,128.81922 v -8.4824 z"
         id="svg_13" />
      <path
         stroke="#6ceebe"
         fill="none"
         stroke-width="2"
         stroke-linecap="round"
         stroke-linejoin="round"
         stroke-miterlimit="10"
         d="m 77.31694,128.81922 v -8.4824 z"
         id="svg_14" />
      <path
         stroke="#6ceebe"
         fill="none"
         stroke-width="2"
         stroke-linecap="round"
         stroke-linejoin="round"
         stroke-miterlimit="10"
         d="m 94.2414,128.81922 v -8.4824 z"
         id="svg_15" />
      <path
         stroke="#6ceebe"
         fill="none"
         stroke-width="2"
         stroke-linecap="round"
         stroke-linejoin="round"
         stroke-miterlimit="10"
         d="m 111.16765,128.81922 v -8.4824 z"
         id="svg_16" />
    </g>
  </g>
  <path
     d="m 122.20611,51.202732 c -1.00863,0 -1.9052,-1.038995 -1.9052,-2.207864 V 35.358066 c 0,-1.168869 0.89657,-2.207863 1.9052,-2.207863 1.00864,0 1.9052,1.038994 1.9052,2.207863 v 13.636802 c 0,1.298743 -0.78449,2.207864 -1.9052,2.207864 z"
     id="path4"
     style="stroke-width:1.20644" />
  <path
     d="m 122.20611,73.800861 c -1.00863,0 -1.9052,-1.038994 -1.9052,-2.207863 V 57.956196 c 0,-1.168869 0.89657,-2.207864 1.9052,-2.207864 1.00864,0 1.9052,1.038995 1.9052,2.207864 v 13.636802 c 0,1.168869 -0.78449,2.207863 -1.9052,2.207863 z"
     id="path6"
     style="stroke-width:1.20644" />
  <path
     d="m 24.592671,51.202732 c -1.008635,0 -1.9052,-1.038995 -1.9052,-2.207864 V 35.358066 c 0,-1.168869 0.896565,-2.207863 1.9052,-2.207863 1.008634,0 1.905199,1.038994 1.905199,2.207863 v 13.636802 c 0,1.298743 -0.896565,2.207864 -1.905199,2.207864 z"
     id="path8"
     style="stroke-width:1.20644" />
  <path
     d="M 102.70584,96.788619 H 89.817721 c -1.008635,0 -1.905193,-1.038995 -1.905193,-2.207863 0,-1.168869 0.896558,-2.207864 1.905193,-2.207864 h 12.888119 c 1.00863,0 1.9052,1.038995 1.9052,2.207864 0,1.168868 -0.7845,2.207863 -1.9052,2.207863 z"
     id="path10"
     style="stroke-width:1.20644" />
  <path
     d="M 80.067588,14.837925 H 67.179476 c -1.008635,0 -1.9052,-1.038994 -1.9052,-2.207863 0,-1.168869 0.896565,-2.207863 1.9052,-2.207863 h 12.888112 c 1.008635,0 1.905199,1.038994 1.905199,2.207863 0,1.168869 -0.784494,2.207863 -1.905199,2.207863 z"
     id="path12"
     style="stroke-width:1.20644" />
  <path
     d="M 102.36963,14.837925 H 89.48151 c -1.00863,0 -1.905196,-1.038994 -1.905196,-2.207863 0,-1.168869 0.896566,-2.207863 1.905196,-2.207863 h 12.88812 c 1.00863,0 1.90519,1.038994 1.90519,2.207863 0,1.168869 -0.89656,2.207863 -1.90519,2.207863 z"
     id="path14"
     style="stroke-width:1.20644" />
  <path
     d="M 57.877621,14.837925 H 44.989509 c -1.008635,0 -1.905199,-1.038994 -1.905199,-2.207863 0,-1.168869 0.896564,-2.207863 1.905199,-2.207863 h 12.888112 c 1.008635,0 1.905199,1.038994 1.905199,2.207863 0,1.168869 -0.896564,2.207863 -1.905199,2.207863 z"
     id="path16"
     style="stroke-width:1.20644" />
  <path
     d="m 121.8699,96.788619 h -10.31049 c -1.00864,0 -1.9052,-1.038995 -1.9052,-2.207863 0,-1.168869 0.89656,-2.207864 1.9052,-2.207864 h 8.40529 V 81.723194 c 0,-1.168869 0.89656,-2.207863 1.9052,-2.207863 1.00863,0 1.9052,1.038994 1.9052,2.207863 v 12.857562 c 0,1.298743 -0.89657,2.207863 -1.9052,2.207863 z"
     id="path18"
     style="stroke-width:1.20644" />
  <path
     d="m 122.20611,26.786362 c -1.00863,0 -1.9052,-1.038995 -1.9052,-2.207863 v -9.740574 h -9.18978 c -1.00864,0 -1.9052,-1.038994 -1.9052,-2.207863 0,-1.168869 0.89656,-2.207863 1.9052,-2.207863 h 11.09498 c 1.00864,0 1.9052,1.038994 1.9052,2.207863 v 11.948437 c 0,1.298743 -0.78449,2.207863 -1.9052,2.207863 z"
     id="path20"
     style="stroke-width:1.20644" />
  <path
     d="M 35.687654,14.837925 H 26.49787 v 9.740574 c 0,1.168868 -0.896565,2.207863 -1.905199,2.207863 -1.008635,0 -1.793129,-0.90912 -1.793129,-2.207863 V 12.630062 c 0,-1.168869 0.896564,-2.207863 1.905199,-2.207863 h 11.094984 c 1.008634,0 1.905199,1.038994 1.905199,2.207863 0,1.168869 -0.896565,2.207863 -2.01727,2.207863 z"
     id="path22"
     style="stroke-width:1.20644" />
  <path
     d="m 81.412434,96.788619 h -6.500091 v -4.415727 h 6.500091 c 1.008635,0 1.905199,1.038995 1.905199,2.207864 0,1.168868 -0.896564,2.207863 -1.905199,2.207863 z"
     id="path24"
     style="stroke-width:1.20644" />
  <path
     d="m 26.60994,59.384813 v 6.233967 h -3.810398 v -6.233967 c 0,-1.168869 0.896564,-2.207863 1.905199,-2.207863 1.008635,0 1.905199,1.038994 1.905199,2.207863 z"
     id="path26"
     style="display:inline;stroke-width:1.20644" />
  <path
     d="m 19.627562,76.48697 c -1.461145,4.021872 0.194819,8.733207 3.604159,10.571776 v 0 l 12.955489,5.860441 -12.955489,5.74553 v 0 c -3.40934,1.838573 -5.065304,6.434993 -3.604159,10.571773 1.461145,4.13678 5.552353,6.09026 9.156511,4.3666 3.604158,-1.72366 5.357533,-6.5499 3.896388,-10.68668 -0.09741,-0.34473 -0.29223,-0.80438 -0.487049,-1.14911 l 11.202114,-5.400796 7.208318,3.447319 c 4.286028,2.298207 15.488142,8.043737 22.112,10.341957 8.182415,2.87276 12.273618,-3.56223 12.273618,-3.56223 L 57.714752,92.804276 84.989462,78.555361 c 0,0 -3.896384,-5.400799 -10.422833,-3.447318 -5.162713,1.608748 -18.410432,8.043742 -23.475737,10.571776 l -7.500546,3.677139 -11.202115,-5.400799 c 0.19482,-0.344732 0.389639,-0.689463 0.487049,-1.149105 1.461145,-4.136783 -0.292229,-8.963028 -3.896388,-10.686687 -3.798977,-1.723659 -7.890185,0.229822 -9.35133,4.366603 z m 10.228017,28.03819 c 0.779278,2.1833 -0.194819,4.71133 -2.240422,5.74553 -1.948194,0.91928 -4.188617,0 -4.967894,-2.1833 -0.779278,-2.18331 0.194819,-4.71134 2.240422,-5.74554 1.948194,-0.91928 4.188617,0 4.967894,2.18331 z m 25.229112,-10.112136 0.292229,-0.689463 25.813569,12.984899 -0.29223,0.68946 z m -5.649763,-4.021871 c 0.974097,0 1.753374,0.919284 1.753374,2.068392 0,1.149105 -0.779277,2.068389 -1.753374,2.068389 -0.974097,0 -1.753375,-0.919284 -1.753375,-2.068389 0,-1.149108 0.779278,-2.068392 1.753375,-2.068392 z M 27.517746,75.682596 c 1.948194,0.919285 3.019702,3.562229 2.240424,5.74553 -0.779278,2.183301 -3.019701,3.217497 -4.967894,2.183301 -1.948194,-0.919284 -3.019701,-3.562228 -2.240424,-5.74553 0.779278,-2.183301 3.0197,-3.102585 4.967894,-2.183301 z"
     id="path2"
     style="stroke-width:1.05799" />
</svg>
