<?xml version="1.0" encoding="UTF-8" standalone="no"?>
<svg
   xmlns:dc="http://purl.org/dc/elements/1.1/"
   xmlns:cc="http://creativecommons.org/ns#"
   xmlns:rdf="http://www.w3.org/1999/02/22-rdf-syntax-ns#"
   xmlns:svg="http://www.w3.org/2000/svg"
   xmlns="http://www.w3.org/2000/svg"
   xmlns:sodipodi="http://sodipodi.sourceforge.net/DTD/sodipodi-0.dtd"
   xmlns:inkscape="http://www.inkscape.org/namespaces/inkscape"
   width="128"
   height="128"
   version="1.1"
   id="svg871"
   sodipodi:docname="import.svg"
   inkscape:version="1.0.1 (3bc2e813f5, 2020-09-07)">
  <metadata
     id="metadata877">
    <rdf:RDF>
      <cc:Work
         rdf:about="">
        <dc:format>image/svg+xml</dc:format>
        <dc:type
           rdf:resource="http://purl.org/dc/dcmitype/StillImage" />
        <dc:title>icon/export-down</dc:title>
      </cc:Work>
    </rdf:RDF>
  </metadata>
  <defs
     id="defs875" />
  <sodipodi:namedview
     pagecolor="#ffffff"
     bordercolor="#666666"
     borderopacity="1"
     objecttolerance="10"
     gridtolerance="10"
     guidetolerance="10"
     inkscape:pageopacity="0"
     inkscape:pageshadow="2"
     inkscape:window-width="1920"
     inkscape:window-height="1017"
     id="namedview873"
     showgrid="false"
     inkscape:snap-bbox="false"
     inkscape:snap-global="true"
     inkscape:snap-center="true"
     inkscape:zoom="4.5447954"
     inkscape:cx="114.52388"
     inkscape:cy="87.126248"
     inkscape:window-x="1912"
     inkscape:window-y="-8"
     inkscape:window-maximized="1"
     inkscape:current-layer="svg871" />
  <title
     id="title856">icon/export-down</title>
  <desc
     id="desc858">Created with Sketch.</desc>
  <g
     id="g863">
    <title
       id="title860">background</title>
    <rect
       fill="none"
       id="canvas_background"
       height="130"
       width="130"
       y="-1"
       x="-1" />
  </g>
  <g
     id="g1069"
     transform="matrix(1.5767355,0.00414606,-0.00288814,1.0983497,-10.971617,54.437433)"
     style="opacity:0.995">
    <g
       stroke="none"
       stroke-width="1"
       fill="none"
       fill-rule="evenodd"
       id="g1051"
       transform="matrix(0.05067878,6.800122,-4.1949506,0.08215161,99.36567,-77.063656)">
      <path
         d="M 9.7071068,12 H 20.5 c 0.276142,0 0.5,0.223858 0.5,0.5 0,0.276142 -0.223858,0.5 -0.5,0.5 H 9.7071068 l 3.1464462,3.146447 c 0.195263,0.195262 0.195263,0.511844 0,0.707106 -0.195262,0.195262 -0.511844,0.195262 -0.707106,0 l -4.0000004,-4 c -0.1952621,-0.195262 -0.1952621,-0.511844 0,-0.707106 L 12.146447,8.1464466 c 0.195262,-0.1952621 0.511844,-0.1952621 0.707106,0 0.195263,0.1952622 0.195263,0.5118446 0,0.7071068 z M 16,21 v -5.5 c 0,-0.276142 0.223858,-0.5 0.5,-0.5 0.276142,0 0.5,0.223858 0.5,0.5 v 6 C 17,21.776142 16.776142,22 16.5,22 H 4.5 C 4.2238576,22 4,21.776142 4,21.5 V 3.5 C 4,3.2238576 4.2238576,3 4.5,3 h 12 C 16.776142,3 17,3.2238576 17,3.5 v 6 C 17,9.7761424 16.776142,10 16.5,10 16.223858,10 16,9.7761424 16,9.5 V 4 H 5 v 17 z"
         fill="#6ceebe"
         fill-rule="nonzero"
         id="path1049" />
    </g>
  </g>
</svg>
