<?xml version="1.0" encoding="UTF-8" standalone="no"?>
<svg
   xmlns:bx="https://boxy-svg.com"
   xmlns:dc="http://purl.org/dc/elements/1.1/"
   xmlns:cc="http://creativecommons.org/ns#"
   xmlns:rdf="http://www.w3.org/1999/02/22-rdf-syntax-ns#"
   xmlns:svg="http://www.w3.org/2000/svg"
   xmlns="http://www.w3.org/2000/svg"
   xmlns:sodipodi="http://sodipodi.sourceforge.net/DTD/sodipodi-0.dtd"
   xmlns:inkscape="http://www.inkscape.org/namespaces/inkscape"
   id="mouse"
   viewBox="0.917 0.331 2000 2000"
   width="2000"
   height="2000"
   version="1.1"
   sodipodi:docname="mouse2.svg"
   inkscape:version="1.0.1 (3bc2e813f5, 2020-09-07)">
  <metadata
     id="metadata298">
    <rdf:RDF>
      <cc:Work
         rdf:about="">
        <dc:format>image/svg+xml</dc:format>
        <dc:type
           rdf:resource="http://purl.org/dc/dcmitype/StillImage" />
        <dc:title></dc:title>
      </cc:Work>
    </rdf:RDF>
  </metadata>
  <defs
     id="defs296" />
  <sodipodi:namedview
     pagecolor="#ffffff"
     bordercolor="#666666"
     borderopacity="1"
     objecttolerance="10"
     gridtolerance="10"
     guidetolerance="10"
     inkscape:pageopacity="0"
     inkscape:pageshadow="2"
     inkscape:window-width="1680"
     inkscape:window-height="987"
     id="namedview294"
     showgrid="false"
     inkscape:zoom="0.3675"
     inkscape:cx="779.59184"
     inkscape:cy="1326.5306"
     inkscape:window-x="-8"
     inkscape:window-y="-8"
     inkscape:window-maximized="1"
     inkscape:current-layer="mouse" />
  <polygon
     style="fill:#6ceebe"
     points="979.666,414.532 1106.875,384.189 1209.716,377.437 1336.374,393.357 1409.585,417.127 1476.487,452.71 1541.071,500.431 1593.42,556.291 1627.7,603.9 1668.307,684.194 1690.246,795.184 1685.87,883.063 1669.446,951.085 1639.021,1018.645 1594.49,1077.762 1391.745,1167.637 1293.837,1222.122 1236.579,1262.911 1104.818,1380.372 985.532,1496.323 844.926,1513.217 551.153,1425.339 374.566,1163.246 365.254,1124.956 361.399,958.497 446.68,838.481 549.264,720.013 664.397,607.513 762.901,533.207 837.19,479.736 "
     id="polygon155"
     transform="matrix(1.4656815,0,0,1.71383,-494.05335,-611.69059)" />
  <polygon
     id="mouse-1"
     style="fill:#6ceebe"
     points="1005.542,773.958 1078.992,695.296 1190.432,660.797 1294.852,814.227 1348.032,924.339 982.406,1370.02 817.005,1420.91 605.79,1360.91 610.236,1317 792.977,1058.66 "
     class="visited"
     transform="matrix(1.4656815,0,0,1.71383,-494.05335,-611.69059)" />
  <polygon
     id="mouse-2"
     style="fill:#6ceebe;fill-opacity:0.22"
     points="621.698,1030.215 837.618,782.876 949.843,672.314 998.034,635.495 1015.703,557.266 789.408,529.271 740.344,546.192 622.891,645.612 508.993,762.294 413.651,882.575 361.77,959.442 365.604,1133.119 459.432,1258.302 458.32,1234.725 "
     class="visited"
     transform="matrix(1.4656815,0,0,1.71383,-494.05335,-611.69059)" />
  <polygon
     id="mouse-3"
     style="fill:#6ceebe"
     points="693.549,943.689 751.401,889.029 789.846,869.447 831.479,851.575 892.346,888.88 887.499,911.834 715.323,1122.092 694.379,1130.985 677.718,1123.949 662.842,1106.245 630.999,1090.223 646.047,1021.603 "
     class="visited"
     transform="matrix(1.4656815,0,0,1.71383,-494.05335,-611.69059)" />
  <polygon
     id="mouse-4"
     style="fill:#6ceebe"
     points="1393.892,882.938 1377.961,925.571 1285.369,1053.932 1260.276,1036.151 1395.09,858.858 "
     transform="matrix(1.4656815,0,0,1.71383,-494.05335,-611.69059)" />
  <polygon
     id="mouse-5"
     style="fill:#6ceebe"
     points="1274.192,1074.556 1158.893,1231.773 1093.133,1241.791 1243.645,1054.638 1262.324,1062.141 "
     transform="matrix(1.4656815,0,0,1.71383,-494.05335,-611.69059)" />
  <g
     id="Layer_2"
     transform="matrix(4.9193884,0,0,5.75227,-491.73263,-611.96076)">
    <path
       class="st0"
       d="m 107.7,335 -1,-49.5 c 0,0 132,-217 301.5,-165 0,0 67,19 88,88 21,69 -22.5,112 -22.5,112 0,0 -54.1,22.6 -73.8,34 -10.8,6.3 -25,14 -46.3,33 -22.4,20 -61.5,58 -61.5,58 l -42,5 -87.4,-26.5 -52,-78.5 z"
       style="fill:none;stroke:#6ceebe;stroke-width:3px;stroke-linecap:round;stroke-linejoin:round;stroke-miterlimit:10"
       id="path162" />
    <path
       class="st0"
       d="m 473.6,165.7 c 0,0 -3.3,-0.7 -9.3,9 -6,9.7 -44,74.3 -62.3,98.3 -18.3,24 -109.7,137 -109.7,137 0,0 -21.7,3.8 -45.2,11.6 -2.1,0.7 -4.3,0.8 -6.5,0.2 -15,-3.8 -76.3,-19.6 -92.3,-27.5 L 107.7,335"
       style="fill:none;stroke:#6ceebe;stroke-width:3px;stroke-linecap:round;stroke-linejoin:round;stroke-miterlimit:10"
       id="path164" />
    <path
       class="st1"
       d="m 272.4,414.4 10.7,23.3 13.2,-2.9 61.2,-56.8 c 0,0 23.6,-20.4 50.6,-32.8 24,-11 71,-31.3 71,-31.3"
       style="fill:none;stroke:#6ceebe;stroke-width:2px;stroke-miterlimit:10"
       id="path166" />
    <path
       class="st2"
       d="m 324.5,370.1 18.9,-2.9 61.8,-85.5 c 0,0 11,-16 8.9,-25.9"
       style="fill:none;stroke:#6ceebe;stroke-width:2px;stroke-linecap:round;stroke-linejoin:round;stroke-miterlimit:10"
       id="path168" />
    <path
       class="st2"
       d="m 369.3,314 c 0,0 5.6,0.6 8.5,5.1"
       style="fill:none;stroke:#6ceebe;stroke-width:2px;stroke-linecap:round;stroke-linejoin:round;stroke-miterlimit:10"
       id="path170" />
    <path
       class="st2"
       d="m 373.4,308.9 c 0,0 5.3,0.3 8.3,5.3"
       style="fill:none;stroke:#6ceebe;stroke-width:2px;stroke-linecap:round;stroke-linejoin:round;stroke-miterlimit:10"
       id="path172" />
    <path
       class="st3"
       d="m 354.7,196.8 c 0,0 30.7,43.6 32.5,48.5 4.3,11.5 13.9,29 13.9,29"
       style="fill:none;stroke:#6ceebe;stroke-width:3px;stroke-miterlimit:10"
       id="path174" />
    <path
       class="st3"
       d="m 180.1,405.3 v -7.7 c 0,0 97.1,-146.3 138.6,-188.7 1.5,-1.5 3.3,-2.6 5.3,-3.2 l 30.7,-9 c 0,0 27.7,-46.5 64,-61.8 2.2,-0.9 2.9,-3.8 1.4,-5.6 -3.7,-4.4 -12.4,-10 -32.1,-5.9 -29.8,6.3 -56.4,17.9 -86.9,42.2 0,0 -2.2,-2 -13.4,-2.2 -11.2,-0.2 -36.7,-4.5 -43.5,-5 -6.8,-0.5 -11.6,-1.8 -23.1,3.1"
       style="fill:none;stroke:#6ceebe;stroke-width:3px;stroke-miterlimit:10"
       id="path176" />
    <path
       class="st3"
       d="M 135,374.9 V 369 c 0,0 97.6,-129.2 157.5,-176.9 2.2,-1.8 3.7,-4.2 4.3,-6.9 l 4.2,-19.5"
       style="fill:none;stroke:#6ceebe;stroke-width:3px;stroke-miterlimit:10"
       id="path178" />
    <g
       id="g182">
      <path
         class="st4"
         d="m 113.7,338.8 c 3.2,3.9 6.3,7.9 9.4,11.9 l 4.7,6 c 0.8,1 1.6,2 2.3,3 l 2.2,3.1 17.9,24.5 -0.5,-0.4 62.5,17.9 15.6,4.5 7.8,2.2 c 0.6,0.2 1.3,0.4 1.9,0.5 0.6,0.1 1.2,0.2 1.8,0.2 1.2,0 2.5,-0.2 3.6,-0.6 10,-3.9 20,-8.2 30.3,-11.7 l 0.2,-0.1 0.2,0.1 c 2.7,1 5.4,2.1 8.1,3.3 2.7,1.2 5.3,2.4 7.9,3.8 -2.7,-1.2 -5.4,-2.2 -8.2,-3.2 -2.7,-1 -5.5,-1.9 -8.3,-2.7 h 0.4 c -5,2.2 -9.9,4.5 -14.9,6.4 l -15.1,6 c -1.4,0.5 -2.9,0.7 -4.4,0.7 -0.7,0 -1.5,-0.1 -2.2,-0.3 -0.8,-0.2 -1.3,-0.4 -2,-0.6 l -7.8,-2.2 -15.6,-4.5 -62.5,-17.9 -0.3,-0.1 -0.2,-0.3 -17.9,-24.5 -2.3,-3 c -0.7,-1 -1.4,-2.1 -2.1,-3.1 l -4.2,-6.3 c -2.7,-4.2 -5.5,-8.4 -8.3,-12.6 z"
         style="fill:#6ceebe"
         id="path180" />
    </g>
    <path
       class="st2"
       d="m 187.7,324.4 c 0,0 2,-28.6 23,-48.6 17.8,-16.9 31.8,-21.1 35.7,-22 0.7,-0.2 1.4,0 2,0.3 l 16.6,10.4 c 0,0 -46.9,11.9 -56.1,71.1"
       style="fill:none;stroke:#6ceebe;stroke-width:2px;stroke-linecap:round;stroke-linejoin:round;stroke-miterlimit:10"
       id="path184" />
    <path
       class="st2"
       d="m 262.1,262.9 c 0,0 -17.7,0.1 -37.4,24.6 C 205,312 203.2,336 203.2,336"
       style="fill:none;stroke:#6ceebe;stroke-width:2px;stroke-linecap:round;stroke-linejoin:round;stroke-miterlimit:10"
       id="path186" />
    <path
       class="st2"
       d="m 236.2,257.3 c 0,0 2.5,-4.5 4.5,-6 2,-1.5 6.3,-3.5 11.5,-0.3 5.2,3.2 12.3,7.3 13.3,12.5 1,5.2 -7,13 -7.8,13.5 -0.8,0.5 -31.5,39.5 -43,54.5 0,0 -6,6.8 -10.5,4.8 -4.5,-2 -6.3,-7.3 -11,-9 -4.7,-1.7 -8.3,-4.3 -8.3,-6.8 0,-2.5 1.8,-5 4.5,-7"
       style="fill:none;stroke:#6ceebe;stroke-width:2px;stroke-linecap:round;stroke-linejoin:round;stroke-miterlimit:10"
       id="path188" />
    <g
       id="g192">
      <path
         class="st4"
         d="m 189.4,332.5 c -1.3,2.1 -2.8,4.2 -4.1,6.3 l -4.5,6 -9.1,11.9 -9.1,11.9 -4.5,6 c -1.6,1.9 -3.3,3.8 -4.9,5.7 1.3,-2.1 2.8,-4.2 4.1,-6.3 l 4.5,-6 9.1,-11.9 9.1,-11.9 4.5,-6 c 1.6,-1.9 3.2,-3.8 4.9,-5.7 z"
         style="fill:#6ceebe"
         id="path190" />
    </g>
    <line
       class="st5"
       x1="197"
       y1="302"
       x2="207.7"
       y2="308.70001"
       style="fill:none;stroke:#6ceebe;stroke-linecap:round;stroke-linejoin:round;stroke-miterlimit:10"
       id="line194" />
    <line
       class="st5"
       x1="201.7"
       y1="292.79999"
       x2="212.3"
       y2="299.5"
       style="fill:none;stroke:#6ceebe;stroke-linecap:round;stroke-linejoin:round;stroke-miterlimit:10"
       id="line196" />
    <line
       class="st5"
       x1="207.8"
       y1="284.20001"
       x2="218.5"
       y2="290.79999"
       style="fill:none;stroke:#6ceebe;stroke-linecap:round;stroke-linejoin:round;stroke-miterlimit:10"
       id="line198" />
    <line
       class="st5"
       x1="214.3"
       y1="277"
       x2="225"
       y2="283.70001"
       style="fill:none;stroke:#6ceebe;stroke-linecap:round;stroke-linejoin:round;stroke-miterlimit:10"
       id="line200" />
    <line
       class="st5"
       x1="220.8"
       y1="270.29999"
       x2="231.5"
       y2="277"
       style="fill:none;stroke:#6ceebe;stroke-linecap:round;stroke-linejoin:round;stroke-miterlimit:10"
       id="line202" />
    <line
       class="st5"
       x1="228.3"
       y1="265"
       x2="237.5"
       y2="270.5"
       style="fill:none;stroke:#6ceebe;stroke-linecap:round;stroke-linejoin:round;stroke-miterlimit:10"
       id="line204" />
    <line
       class="st5"
       x1="236"
       y1="261.20001"
       x2="243.8"
       y2="266.20001"
       style="fill:none;stroke:#6ceebe;stroke-linecap:round;stroke-linejoin:round;stroke-miterlimit:10"
       id="line206" />
    <line
       class="st5"
       x1="242.5"
       y1="258.20001"
       x2="249.7"
       y2="262.79999"
       style="fill:none;stroke:#6ceebe;stroke-linecap:round;stroke-linejoin:round;stroke-miterlimit:10"
       id="line208" />
    <g
       id="g212">
      <path
         class="st4"
         d="m 272.6,399.9 c 26.2,-33.8 52.1,-68 77.4,-102.5 12.6,-17.3 25.1,-34.7 37.4,-52.2 l 9.1,-13.3 c 3,-4.4 5.9,-8.9 8.9,-13.4 l 2.2,-3.4 2.1,-3.4 4.3,-6.8 c 1.5,-2.2 2.8,-4.6 4.1,-6.9 l 4,-7 -3.9,7 c -1.3,2.3 -2.6,4.7 -4,6.9 l -4.2,6.8 -2.1,3.4 -2.2,3.4 c -2.9,4.5 -5.8,9 -8.8,13.5 l -9,13.3 c -12.1,17.7 -24.5,35.2 -37,52.6 -25.1,34.7 -50.7,69.1 -76.6,103.2 -0.3,0.4 -1,0.5 -1.4,0.2 -0.5,-0.3 -0.6,-1 -0.3,-1.4 z"
         style="fill:#6ceebe"
         id="path210" />
    </g>
    <g
       id="g216">
      <path
         class="st4"
         d="m 243.3,424.5 c 1.5,3.7 2.7,7.5 3.8,11.3 1.1,3.8 2.1,7.6 2.9,11.6 -1.5,-3.7 -2.7,-7.5 -3.8,-11.3 -1.1,-3.9 -2.1,-7.7 -2.9,-11.6 z"
         style="fill:#6ceebe"
         id="path214" />
    </g>
    <g
       id="g280"
       style="fill:#6ceebe">
      <defs
         id="defs219">
        <path
           id="SVGID_1_"
           d="m 337.4,375 c -0.5,-0.5 -0.8,6.3 -0.8,6.3 0,0 -1,5.5 4.3,4 5.3,-1.5 23.3,-27 69,-45.8 45.7,-18.8 63.9,-34.8 72.8,-49.3 4.9,-8 18.5,-39.8 3.3,-69.5 -15.2,-29.7 -29.7,-6.8 -32.7,-2.3 -3,4.5 -22.7,34.8 -41.5,62.8 -19.3,28.8 -52.2,73.6 -61.8,84.8 -8.8,10.2 -10.8,10.8 -12.6,9 z" />
      </defs>
      <clipPath
         id="SVGID_2_">
        <path
           d="m 337.4,375 c -0.5,-0.5 -0.8,6.3 -0.8,6.3 0,0 -1,5.5 4.3,4 5.3,-1.5 23.3,-27 69,-45.8 45.7,-18.8 63.9,-34.8 72.8,-49.3 4.9,-8 18.5,-39.8 3.3,-69.5 -15.2,-29.7 -29.7,-6.8 -32.7,-2.3 -3,4.5 -22.7,34.8 -41.5,62.8 -19.3,28.8 -52.2,73.6 -61.8,84.8 -8.8,10.2 -10.8,10.8 -12.6,9 z"
           style="overflow:visible"
           id="path221" />
      </clipPath>
      <g
         class="st6"
         clip-path="url(#SVGID_2_)"
         id="g278"
         style="fill:#6ceebe">
        <path
           class="st2"
           d="m 471.5,201.3 c 0,0 17.2,46.3 22.7,56.5"
           style="fill:#6ceebe;stroke:#6ceebe;stroke-width:2px;stroke-linecap:round;stroke-linejoin:round;stroke-miterlimit:10"
           id="path224" />
        <path
           class="st2"
           d="m 466,200.5 c 0,0 7.5,24 10.7,32.5 3.2,8.5 15.2,34.2 16.7,37"
           style="fill:#6ceebe;stroke:#6ceebe;stroke-width:2px;stroke-linecap:round;stroke-linejoin:round;stroke-miterlimit:10"
           id="path226" />
        <path
           class="st2"
           d="m 460.8,201 c 0,0 10.1,30.7 15,43.7 4.8,13 12.1,28.1 14.2,34.6"
           style="fill:#6ceebe;stroke:#6ceebe;stroke-width:2px;stroke-linecap:round;stroke-linejoin:round;stroke-miterlimit:10"
           id="path228" />
        <path
           class="st2"
           d="m 457.4,204.1 c 0,0 3.4,12.5 6.5,23.8 3.1,11.3 7.6,25.7 12.1,34.8 4.5,9.1 9.1,19.2 10.8,24.4"
           style="fill:#6ceebe;stroke:#6ceebe;stroke-width:2px;stroke-linecap:round;stroke-linejoin:round;stroke-miterlimit:10"
           id="path230" />
        <path
           class="st2"
           d="m 453.5,208.8 c 0,0 6.1,29.4 13.8,48.2 7.6,18.8 13.2,30.2 15.5,36.3"
           style="fill:#6ceebe;stroke:#6ceebe;stroke-width:2px;stroke-linecap:round;stroke-linejoin:round;stroke-miterlimit:10"
           id="path232" />
        <path
           class="st2"
           d="m 449.6,214 c 0,0 5,27.9 10.1,41.2 5,13.2 16,35.2 19.2,44.3"
           style="fill:#6ceebe;stroke:#6ceebe;stroke-width:2px;stroke-linecap:round;stroke-linejoin:round;stroke-miterlimit:10"
           id="path234" />
        <path
           class="st2"
           d="m 445.7,218.7 c 0,0 3.2,24.6 9.9,43.9 6.7,19.4 14.3,33.9 18.1,42.3"
           style="fill:#6ceebe;stroke:#6ceebe;stroke-width:2px;stroke-linecap:round;stroke-linejoin:round;stroke-miterlimit:10"
           id="path236" />
        <path
           class="st2"
           d="m 442.1,223.5 c 0,0 2.8,28.9 9.5,48 6.7,19.2 18.8,37.4 19,38"
           style="fill:#6ceebe;stroke:#6ceebe;stroke-width:2px;stroke-linecap:round;stroke-linejoin:round;stroke-miterlimit:10"
           id="path238" />
        <path
           class="st2"
           d="m 437.7,229.5 c 0,0 2.4,27.6 7.8,43.9 5.4,16.4 15.3,32.6 19.4,39.8"
           style="fill:#6ceebe;stroke:#6ceebe;stroke-width:2px;stroke-linecap:round;stroke-linejoin:round;stroke-miterlimit:10"
           id="path240" />
        <path
           class="st2"
           d="m 433.6,235.8 c 0,0 1.5,28.9 7.1,45.1 7.4,21.8 15.6,33.1 17.3,36.5"
           style="fill:#6ceebe;stroke:#6ceebe;stroke-width:2px;stroke-linecap:round;stroke-linejoin:round;stroke-miterlimit:10"
           id="path242" />
        <path
           class="st2"
           d="m 429.3,241.7 c 0,0 0.6,28.9 5.6,45.8 5,16.9 16.9,33.7 16.9,34.3"
           style="fill:#6ceebe;stroke:#6ceebe;stroke-width:2px;stroke-linecap:round;stroke-linejoin:round;stroke-miterlimit:10"
           id="path244" />
        <path
           class="st2"
           d="m 425.4,247.9 c 0,0 0.3,26.3 3.4,41.3 4.5,21.8 12.5,33.1 15.5,37.1"
           style="fill:#6ceebe;stroke:#6ceebe;stroke-width:2px;stroke-linecap:round;stroke-linejoin:round;stroke-miterlimit:10"
           id="path246" />
        <path
           class="st2"
           d="m 420.5,254 c 0,0 -1.7,23.5 2.2,40.4 5.6,23.8 14.9,35.4 14.9,35.4"
           style="fill:#6ceebe;stroke:#6ceebe;stroke-width:2px;stroke-linecap:round;stroke-linejoin:round;stroke-miterlimit:10"
           id="path248" />
        <path
           class="st2"
           d="m 415.5,262 c 0,0 -2.3,19.1 0.2,34.1 3.2,19.2 9.9,31.5 11.9,38.7"
           style="fill:#6ceebe;stroke:#6ceebe;stroke-width:2px;stroke-linecap:round;stroke-linejoin:round;stroke-miterlimit:10"
           id="path250" />
        <path
           class="st2"
           d="m 409.4,276.4 c -0.9,11.2 -1.4,22.5 0.9,33.5 0.7,3.3 1.6,6.5 2.6,9.6 2,6.9 4.1,13.8 6.1,20.7"
           style="fill:#6ceebe;stroke:#6ceebe;stroke-width:2px;stroke-linecap:round;stroke-linejoin:round;stroke-miterlimit:10"
           id="path252" />
        <path
           class="st2"
           d="m 403.9,285 c -1.3,9.4 -2.6,19.1 -0.8,28.5 0.5,2.9 1.4,5.7 2.1,8.6 1.7,6.9 2.8,14 3.8,21.1"
           style="fill:#6ceebe;stroke:#6ceebe;stroke-width:2px;stroke-linecap:round;stroke-linejoin:round;stroke-miterlimit:10"
           id="path254" />
        <path
           class="st2"
           d="m 396.6,295.5 c -0.8,8.6 0.5,17.2 1.8,25.7 1.3,8.3 2.6,16.6 3.9,24.9"
           style="fill:#6ceebe;stroke:#6ceebe;stroke-width:2px;stroke-linecap:round;stroke-linejoin:round;stroke-miterlimit:10"
           id="path256" />
        <path
           class="st2"
           d="m 390.9,305.8 c -3.2,14.8 2,29.9 2.5,45"
           style="fill:#6ceebe;stroke:#6ceebe;stroke-width:2px;stroke-linecap:round;stroke-linejoin:round;stroke-miterlimit:10"
           id="path258" />
        <path
           class="st2"
           d="m 384.9,315.3 c -0.4,13.1 0.3,26.2 2.1,39.1"
           style="fill:#6ceebe;stroke:#6ceebe;stroke-width:2px;stroke-linecap:round;stroke-linejoin:round;stroke-miterlimit:10"
           id="path260" />
        <path
           class="st2"
           d="m 378.6,324.4 c -0.8,12 -0.9,24 -0.2,35.9"
           style="fill:#6ceebe;stroke:#6ceebe;stroke-width:2px;stroke-linecap:round;stroke-linejoin:round;stroke-miterlimit:10"
           id="path262" />
        <path
           class="st2"
           d="m 373.7,331.7 c -0.8,10.7 -1,21.3 -0.6,32"
           style="fill:#6ceebe;stroke:#6ceebe;stroke-width:2px;stroke-linecap:round;stroke-linejoin:round;stroke-miterlimit:10"
           id="path264" />
        <path
           class="st2"
           d="m 368.6,338 c -0.4,9.6 -0.8,19.1 -1.2,28.7"
           style="fill:#6ceebe;stroke:#6ceebe;stroke-width:2px;stroke-linecap:round;stroke-linejoin:round;stroke-miterlimit:10"
           id="path266" />
        <path
           class="st2"
           d="m 364.1,344.4 c -0.3,8.9 -1.3,17.8 -3.1,26.6"
           style="fill:#6ceebe;stroke:#6ceebe;stroke-width:2px;stroke-linecap:round;stroke-linejoin:round;stroke-miterlimit:10"
           id="path268" />
        <path
           class="st2"
           d="m 359.4,350.7 c -1.7,9.2 -3.5,18.5 -5.2,27.7"
           style="fill:#6ceebe;stroke:#6ceebe;stroke-width:2px;stroke-linecap:round;stroke-linejoin:round;stroke-miterlimit:10"
           id="path270" />
        <path
           class="st2"
           d="m 353.2,358 c -1.1,8.2 -2.1,16.4 -3.2,24.6"
           style="fill:#6ceebe;stroke:#6ceebe;stroke-width:2px;stroke-linecap:round;stroke-linejoin:round;stroke-miterlimit:10"
           id="path272" />
        <path
           class="st2"
           d="m 349.2,362.8 c -0.8,7.7 -2.1,15.4 -3.7,22.9"
           style="fill:#6ceebe;stroke:#6ceebe;stroke-width:2px;stroke-linecap:round;stroke-linejoin:round;stroke-miterlimit:10"
           id="path274" />
        <path
           class="st2"
           d="m 344.4,366.4 c -0.4,7.8 -3.1,15.3 -4.1,23"
           style="fill:#6ceebe;stroke:#6ceebe;stroke-width:2px;stroke-linecap:round;stroke-linejoin:round;stroke-miterlimit:10"
           id="path276" />
      </g>
    </g>
    <g
       id="g284">
      <path
         class="st4"
         d="m 293.2,413.3 c 0.7,3 1.1,6.1 1.4,9.2 0.3,3.1 0.5,6.2 0.4,9.3 -0.7,-3 -1.1,-6.1 -1.4,-9.2 -0.3,-3.1 -0.5,-6.2 -0.4,-9.3 z"
         style="fill:#6ceebe"
         id="path282" />
    </g>
    <line
       class="st5"
       x1="195"
       y1="312.5"
       x2="203.39999"
       y2="317.39999"
       style="fill:none;stroke:#6ceebe;stroke-linecap:round;stroke-linejoin:round;stroke-miterlimit:10"
       id="line286" />
    <line
       class="st5"
       x1="193.3"
       y1="320.79999"
       x2="200.3"
       y2="324.79999"
       style="fill:none;stroke:#6ceebe;stroke-linecap:round;stroke-linejoin:round;stroke-miterlimit:10"
       id="line288" />
  </g>
  <path
     id="wheel-down"
     d="m 471.89446,1335.9125 -143.24233,221.6357 62.96013,55.6357 -232.4457,155.5869 64.55242,-303.9486 62.96012,55.6358 143.24233,-221.6355 z"
     style="fill:#6ceebe;stroke:#6ceebe;stroke-width:11.0944px;stroke-linejoin:bevel"
     bx:shape="arrow 2535.026 4044.696 330.142 143.581 35.895 168.045 0 1@dbf8f4e0"
     class="visited" />
  <path
     id="wheel-up"
     d="M 780.9929,800.71842 935.98137,590.16542 876.16941,529.96747 1116.5946,391.95268 1035.6675,690.49495 975.85553,630.297 820.86708,840.85007 Z"
     style="fill:#6ceebe;stroke:#6ceebe;stroke-width:11.0943px;stroke-linejoin:bevel"
     bx:shape="arrow 2535.02 4044.686 330.142 143.581 35.895 168.045 0 1@fdee07bb"
     class="visited" />
</svg>
