<?xml version="1.0" encoding="UTF-8" standalone="no"?>
<svg
   xmlns:dc="http://purl.org/dc/elements/1.1/"
   xmlns:cc="http://creativecommons.org/ns#"
   xmlns:rdf="http://www.w3.org/1999/02/22-rdf-syntax-ns#"
   xmlns:svg="http://www.w3.org/2000/svg"
   xmlns="http://www.w3.org/2000/svg"
   xmlns:sodipodi="http://sodipodi.sourceforge.net/DTD/sodipodi-0.dtd"
   xmlns:inkscape="http://www.inkscape.org/namespaces/inkscape"
   width="128"
   height="128"
   version="1.1"
   id="svg871"
   sodipodi:docname="scale_Y.svg"
   inkscape:version="1.0.1 (3bc2e813f5, 2020-09-07)">
  <metadata
     id="metadata877">
    <rdf:RDF>
      <cc:Work
         rdf:about="">
        <dc:format>image/svg+xml</dc:format>
        <dc:type
           rdf:resource="http://purl.org/dc/dcmitype/StillImage" />
        <dc:title>icon/export-down</dc:title>
      </cc:Work>
    </rdf:RDF>
  </metadata>
  <defs
     id="defs875" />
  <sodipodi:namedview
     pagecolor="#ffffff"
     bordercolor="#666666"
     borderopacity="1"
     objecttolerance="10"
     gridtolerance="10"
     guidetolerance="10"
     inkscape:pageopacity="0"
     inkscape:pageshadow="2"
     inkscape:window-width="1920"
     inkscape:window-height="1017"
     id="namedview873"
     showgrid="false"
     inkscape:snap-bbox="false"
     inkscape:snap-global="true"
     inkscape:snap-center="true"
     inkscape:zoom="4.4246456"
     inkscape:cx="114.52388"
     inkscape:cy="85.549774"
     inkscape:window-x="-8"
     inkscape:window-y="-6"
     inkscape:window-maximized="1"
     inkscape:current-layer="svg871"
     inkscape:document-rotation="0" />
  <title
     id="title856">icon/export-down</title>
  <desc
     id="desc858">Created with Sketch.</desc>
  <g
     id="g863"
     transform="translate(0.04985951,-0.11001606)">
    <title
       id="title860">background</title>
    <rect
       fill="#f0f0f0"
       id="canvas_background"
       height="130"
       width="130"
       y="-1"
       x="-1" />
  </g>
  <g
     id="g1095"
     transform="matrix(1.1886729,0,0,1.1587454,5.2514924,52.549667)">
    <g
       id="g1123"
       transform="matrix(13.840058,0,0,13.508481,-19.741653,-57.755685)">
      <g
         id="g1103">
        <path
           d="M 5.147,9.125 V 7.3 L 5.772,7.957 5.985,7.753 5.106,6.829 C 5.093,6.813 5.075,6.803 5.056,6.795 c 0,0 0,0 -0.001,-0.001 C 5.037,6.787 5.019,6.783 5,6.783 c -0.019,0 -0.037,0.004 -0.055,0.011 0,0.001 0,0.001 -0.001,0.001 C 4.926,6.803 4.908,6.813 4.894,6.829 L 4.015,7.753 4.229,7.957 4.853,7.3 v 1.825 z"
           id="path1097" />
        <path
           d="M 6.696,3.304 3.304,3.305 V 6.549 6.696 H 6.697 V 3.304 Z M 3.599,6.401 V 3.599 L 6.401,3.6 V 6.402 H 3.599 Z"
           id="path1099" />
        <path
           d="M 5.056,3.206 C 5.076,3.197 5.092,3.187 5.107,3.172 L 5.986,2.247 5.772,2.044 5.147,2.701 V 0.875 H 4.853 V 2.701 L 4.229,2.044 4.015,2.247 4.894,3.172 c 0.014,0.016 0.032,0.025 0.051,0.034 10e-4,0 10e-4,0 10e-4,10e-4 0.017,0.006 0.035,0.01 0.054,0.01 0.019,0 0.037,-0.004 0.056,-0.011 0,0 0,0 0,0 z"
           id="path1101" />
      </g>
    </g>
  </g>
</svg>
