<?xml version="1.0" encoding="UTF-8" standalone="no"?>
<svg
   xmlns:dc="http://purl.org/dc/elements/1.1/"
   xmlns:cc="http://creativecommons.org/ns#"
   xmlns:rdf="http://www.w3.org/1999/02/22-rdf-syntax-ns#"
   xmlns:svg="http://www.w3.org/2000/svg"
   xmlns="http://www.w3.org/2000/svg"
   xmlns:sodipodi="http://sodipodi.sourceforge.net/DTD/sodipodi-0.dtd"
   xmlns:inkscape="http://www.inkscape.org/namespaces/inkscape"
   width="128"
   height="128"
   version="1.1"
   id="svg871"
   sodipodi:docname="scale_X.svg"
   inkscape:version="1.0.1 (3bc2e813f5, 2020-09-07)">
  <metadata
     id="metadata877">
    <rdf:RDF>
      <cc:Work
         rdf:about="">
        <dc:format>image/svg+xml</dc:format>
        <dc:type
           rdf:resource="http://purl.org/dc/dcmitype/StillImage" />
        <dc:title>icon/export-down</dc:title>
      </cc:Work>
    </rdf:RDF>
  </metadata>
  <defs
     id="defs875" />
  <sodipodi:namedview
     pagecolor="#ffffff"
     bordercolor="#666666"
     borderopacity="1"
     objecttolerance="10"
     gridtolerance="10"
     guidetolerance="10"
     inkscape:pageopacity="0"
     inkscape:pageshadow="2"
     inkscape:window-width="1920"
     inkscape:window-height="1017"
     id="namedview873"
     showgrid="false"
     inkscape:snap-bbox="false"
     inkscape:snap-global="true"
     inkscape:snap-center="true"
     inkscape:zoom="4.5447954"
     inkscape:cx="114.52388"
     inkscape:cy="85.549774"
     inkscape:window-x="-8"
     inkscape:window-y="-6"
     inkscape:window-maximized="1"
     inkscape:current-layer="svg871" />
  <title
     id="title856">icon/export-down</title>
  <desc
     id="desc858">Created with Sketch.</desc>
  <g
     id="g863"
     transform="translate(0.04985951,-0.11001606)">
    <title
       id="title860">background</title>
    <rect
       fill="#f0f0f0"
       id="canvas_background"
       height="130"
       width="130"
       y="-1"
       x="-1" />
  </g>
  <g
     id="g1185"
     transform="matrix(1.5466545,0,0,1.6211335,-1.77131,32.41639)">
    <g
       id="g1165"
       transform="matrix(10.10574,0,0,9.4969411,-7.9766279,-28.065397)">
      <path
         d="M 9.125,4.852 H 7.301 L 7.957,4.228 7.754,4.014 6.83,4.893 C 6.814,4.908 6.803,4.925 6.795,4.944 c 0,0.001 0,0.001 0,0.001 C 6.787,4.962 6.784,4.981 6.784,5 c 0,0.019 0.003,0.037 0.011,0.055 0,0.001 0,0.001 0,0.001 0.008,0.02 0.02,0.037 0.035,0.052 L 7.754,5.986 7.957,5.773 7.301,5.147 h 1.824 z"
         id="path1159" />
      <path
         d="M 3.305,3.303 V 6.696 H 6.55 6.697 V 3.303 Z M 6.402,6.4 H 3.6 V 3.598 L 6.403,3.599 V 6.4 Z"
         id="path1161" />
      <path
         d="M 3.207,4.944 C 3.199,4.925 3.188,4.908 3.172,4.893 L 2.248,4.014 2.044,4.228 2.701,4.852 H 0.876 V 5.147 H 2.701 L 2.044,5.772 2.247,5.985 3.172,5.107 C 3.187,5.092 3.198,5.075 3.206,5.055 c 0,0 0,0 0,0 C 3.214,5.037 3.217,5.018 3.217,5 c 0,-0.02 -0.003,-0.038 -0.01,-0.055 0,0 0,0 0,-0.001 z"
         id="path1163" />
    </g>
  </g>
</svg>
